<svg id="calendar" xmlns="http://www.w3.org/2000/svg" width="28" height="28" viewBox="0 0 28 28">
  <path id="Path_53" data-name="Path 53" d="M24.391,2.188H21.875V.875a.875.875,0,0,0-1.75,0V2.188H7.875V.875a.875.875,0,0,0-1.75,0V2.188H3.609A3.613,3.613,0,0,0,0,5.8V24.391A3.613,3.613,0,0,0,3.609,28H24.391A3.613,3.613,0,0,0,28,24.391V5.8A3.613,3.613,0,0,0,24.391,2.188ZM3.609,3.938H6.125v.875a.875.875,0,0,0,1.75,0V3.938h12.25v.875a.875.875,0,0,0,1.75,0V3.938h2.516A1.861,1.861,0,0,1,26.25,5.8V7.875H1.75V5.8A1.861,1.861,0,0,1,3.609,3.938ZM24.391,26.25H3.609A1.861,1.861,0,0,1,1.75,24.391V9.625h24.5V24.391A1.861,1.861,0,0,1,24.391,26.25Z" fill="#fcc419"/>
</svg>
