<svg xmlns="http://www.w3.org/2000/svg" width="25.718" height="24.647" viewBox="0 0 25.718 24.647">
  <path id="github" d="M12.859.5A12.748,12.748,0,0,0,0,13.136,12.657,12.657,0,0,0,8.792,25.125c.643.119.879-.272.879-.608,0-.3-.011-1.1-.016-2.149-3.577.762-4.331-1.7-4.331-1.7a3.368,3.368,0,0,0-1.431-1.848c-1.165-.783.09-.767.09-.767a2.69,2.69,0,0,1,1.97,1.3A2.769,2.769,0,0,0,9.7,20.411a2.675,2.675,0,0,1,.814-1.69c-2.856-.316-5.857-1.4-5.857-6.244A4.828,4.828,0,0,1,5.978,9.087a4.421,4.421,0,0,1,.113-3.344s1.077-.339,3.536,1.3a12.329,12.329,0,0,1,6.43,0c2.443-1.634,3.52-1.3,3.52-1.3a4.543,4.543,0,0,1,.129,3.344,4.847,4.847,0,0,1,1.318,3.391c0,4.854-3.006,5.923-5.867,6.233a3,3,0,0,1,.868,2.338c0,1.691-.016,3.05-.016,3.46,0,.331.225.727.884.6a12.619,12.619,0,0,0,8.826-11.973A12.75,12.75,0,0,0,12.859.5Z" transform="translate(0 -0.5)" fill="#fcc419"/>
</svg>
