<svg xmlns="http://www.w3.org/2000/svg" width="23.771" height="23.375" viewBox="0 0 23.771 23.375">
  <g id="linkedin" transform="translate(1 -4.267)">
    <g id="Group_30" data-name="Group 30" transform="translate(-1 4.267)">
      <g id="Group_29" data-name="Group 29" transform="translate(0 0)">
        <path id="Path_376" data-name="Path 376" d="M2.209,4.267A3.179,3.179,0,0,0-1,7.436,3.177,3.177,0,0,0-.049,9.695a3.022,3.022,0,0,0,2.219.911h.079a3,3,0,0,0,2.139-.911,3.177,3.177,0,0,0,.951-2.258,2.961,2.961,0,0,0-.911-2.219A3,3,0,0,0,2.209,4.267ZM3.833,9.14a2.182,2.182,0,0,1-1.664.674A2.4,2.4,0,0,1,.506,9.14a2.3,2.3,0,0,1-.713-1.7A2.368,2.368,0,0,1,2.209,5.059a2.312,2.312,0,0,1,1.624.674,2.368,2.368,0,0,1,.713,1.7A2.3,2.3,0,0,1,3.833,9.14Z" transform="translate(1 -4.267)" fill="#fcc419"/>
        <path id="Path_377" data-name="Path 377" d="M11.891,157.867H8.682a1.159,1.159,0,0,0-1.149,1.189v13.867a1.219,1.219,0,0,0,1.189,1.189h3.17a1.212,1.212,0,0,0,1.189-1.149V159.056A1.219,1.219,0,0,0,11.891,157.867Zm.4,15.095a.391.391,0,0,1-.4.357H8.722a.426.426,0,0,1-.4-.4V159.056a.391.391,0,0,1,.357-.4h3.209a.426.426,0,0,1,.4.4Z" transform="translate(-7.137 -150.736)" fill="#fcc419"/>
        <path id="Path_378" data-name="Path 378" d="M179.153,149.333h-.832a5.352,5.352,0,0,0-3.962,1.743v-.555a.852.852,0,0,0-.792-.792h-3.962a.814.814,0,0,0-.792.753V165.26a.779.779,0,0,0,.792.713h4.358a.779.779,0,0,0,.792-.713V156.7a2.236,2.236,0,0,1,2.179-2.338,2.335,2.335,0,0,1,1.664.674,2.08,2.08,0,0,1,.555,1.624v8.518a.852.852,0,0,0,.792.792h3.962a.852.852,0,0,0,.792-.792V154.959A5.506,5.506,0,0,0,179.153,149.333Zm4.754,15.808-.04.04h-3.883l-.04-8.518a2.918,2.918,0,0,0-.753-2.179,3.116,3.116,0,0,0-2.219-.911A3.055,3.055,0,0,0,174,156.7v8.478h-4.358V150.522h3.922l.04.04v2.5l1.07-1.07.04-.04a4.521,4.521,0,0,1,3.645-1.822h.832a4.728,4.728,0,0,1,4.715,4.833Z" transform="translate(-160.929 -142.598)" fill="#fcc419"/>
      </g>
    </g>
  </g>
</svg>
