<svg xmlns="http://www.w3.org/2000/svg" width="30.203" height="21.236" viewBox="0 0 30.203 21.236">
  <g id="mail" transform="translate(0 -76)">
    <g id="Group_16" data-name="Group 16" transform="translate(0 76)">
      <path id="Path_36" data-name="Path 36" d="M27.548,76H2.655A2.658,2.658,0,0,0,0,78.655V94.582a2.659,2.659,0,0,0,2.655,2.655H27.548A2.658,2.658,0,0,0,30.2,94.582V78.655A2.657,2.657,0,0,0,27.548,76Zm-.372,1.77-10.2,10.144a2.655,2.655,0,0,1-3.756,0L3.026,77.77ZM1.77,94.222V79.016l7.647,7.607Zm1.258,1.245,7.644-7.6,1.3,1.294a4.424,4.424,0,0,0,6.255,0l1.3-1.3,7.644,7.6Zm25.406-1.245-7.647-7.6,7.647-7.607Z" transform="translate(0 -76)" fill="#fcc419"/>
    </g>
  </g>
</svg>
