<svg xmlns="http://www.w3.org/2000/svg" width="16.476" height="22" viewBox="0 0 16.476 22">
  <g id="name" transform="translate(4.582)">
    <path id="Path_359" data-name="Path 359" d="M145.8,177.011a2.505,2.505,0,1,0-2.505-2.505A2.505,2.505,0,0,0,145.8,177.011Zm0-4.037a1.536,1.536,0,1,1-1.536,1.536A1.536,1.536,0,0,1,145.8,172.974Zm0,0" transform="translate(-142.142 -165.332)" fill="#fcc419"/>
    <path id="Path_360" data-name="Path 360" d="M112.516,325.122a3.76,3.76,0,0,0-2.723,1.139,4.019,4.019,0,0,0-1.124,2.844.486.486,0,0,0,.485.485h6.726a.486.486,0,0,0,.485-.485,4.019,4.019,0,0,0-1.124-2.844A3.76,3.76,0,0,0,112.516,325.122Zm-2.844,3.5a2.964,2.964,0,0,1,.814-1.682,2.854,2.854,0,0,1,4.061,0,2.979,2.979,0,0,1,.814,1.682Zm0,0" transform="translate(-108.86 -312.518)" fill="#fcc419"/>
    <path id="Path_361" data-name="Path 361" d="M9.471,0H-2.159A2.424,2.424,0,0,0-4.582,2.423V19.577A2.424,2.424,0,0,0-2.159,22H9.471a2.424,2.424,0,0,0,2.423-2.423V2.423A2.424,2.424,0,0,0,9.471,0Zm1.454,19.577a1.458,1.458,0,0,1-1.454,1.454H-2.159a1.458,1.458,0,0,1-1.454-1.454V2.423A1.458,1.458,0,0,1-2.159.969H9.471a1.458,1.458,0,0,1,1.454,1.454Zm0,0" fill="#fcc419"/>
    <path id="Path_362" data-name="Path 362" d="M143.778,59.844h3.877a.485.485,0,1,0,0-.969h-3.877a.485.485,0,0,0,0,.969Zm0,0" transform="translate(-142.142 -56.593)" fill="#fcc419"/>
  </g>
</svg>
