<svg xmlns="http://www.w3.org/2000/svg" width="25.295" height="25.296" viewBox="0 0 25.295 25.296">
  <g id="portfolio" transform="translate(-0.002)">
    <g id="Group_20" data-name="Group 20" transform="translate(0.002)">
      <g id="Group_19" data-name="Group 19" transform="translate(0)">
        <path id="Path_370" data-name="Path 370" d="M25.143,13.005a.843.843,0,0,0-.689-.357H21.925V9.275a.844.844,0,0,0-.843-.843h-.843V5.059a.844.844,0,0,0-.843-.843H18.131V2.951a.844.844,0,0,0-.843-.843H16.023V.843A.844.844,0,0,0,15.179,0H5.061a.844.844,0,0,0-.843.843V8.432H.424a.4.4,0,0,0-.075.015.4.4,0,0,0-.069.01l-.009.005a.411.411,0,0,0-.083.051.422.422,0,0,0-.055.037.409.409,0,0,0-.048.066.42.42,0,0,0-.044.066.427.427,0,0,0-.017.067A.411.411,0,0,0,0,8.843s0,.007,0,.01V24.874c0,.005,0,.01,0,.015a.418.418,0,0,0,.029.144c0,.005.006.01.008.015a.418.418,0,0,0,.037.068.407.407,0,0,0,.036.04c.006.007.012.014.019.021a.417.417,0,0,0,.115.078l.027.01a.416.416,0,0,0,.147.03H20.539a.845.845,0,0,0,.794-.56l3.915-10.961A.843.843,0,0,0,25.143,13.005Zm-4.9-3.73h.843v3.373h-.843ZM19.4,5.059v7.589H16.716a3.794,3.794,0,1,0-4.759,0H9.277V5.059Zm-5.059,5.9a1.38,1.38,0,0,1,.918.328.9.9,0,0,1,.346.693v.377a2.914,2.914,0,0,1-2.53,0v-.377A1.164,1.164,0,0,1,14.336,10.961Zm-.843-1.686a.843.843,0,1,1,.843.843A.843.843,0,0,1,13.493,9.275Zm2.044,1.182a1.687,1.687,0,1,0-2.4,0,1.832,1.832,0,0,0-.883,1.328,2.951,2.951,0,1,1,4.17,0h0a1.758,1.758,0,0,0-.618-1.135A2.044,2.044,0,0,0,15.537,10.457Zm1.751-7.506V4.216H9.277a.844.844,0,0,0-.843.843v7.589H7.169v-9.7ZM5.061.843H15.179V2.108H7.169a.844.844,0,0,0-.843.843v9.7H5.061ZM4.218,9.275v3.437l-1.832.305L1.026,9.275H4.218ZM.845,11.247l.749,2.059a.843.843,0,0,0,.931.543L4,13.6.845,22.44V11.247ZM20.539,24.452H1.022L4.937,13.491H24.454Z" transform="translate(-0.002)" fill="#fcc419"/>
        <path id="Path_371" data-name="Path 371" d="M163.4,293.325v.9a1.266,1.266,0,0,0,1.265,1.265h5.9a1.266,1.266,0,0,0,1.265-1.265v-.9a1.686,1.686,0,1,0-.843,0v.9a.422.422,0,0,1-.422.422h-5.9a.422.422,0,0,1-.422-.422v-.9a1.686,1.686,0,1,0-.843,0Zm7.2-1.849a.843.843,0,1,1,1.236.948v-.3a.422.422,0,1,0-.843,0v.3A.843.843,0,0,1,170.594,291.476Zm-6.924-.612a.843.843,0,0,1,.571,1.56v-.3a.422.422,0,1,0-.843,0v.3a.843.843,0,0,1,.272-1.56Z" transform="translate(-154.123 -275.678)" fill="#fcc419"/>
      </g>
    </g>
  </g>
</svg>
