<svg xmlns="http://www.w3.org/2000/svg" width="27" height="27.13" viewBox="0 0 27 27.13">
  <path id="whatsapp" d="M23.316,3.943A13.447,13.447,0,0,0,2.157,20.164L.25,27.13,7.377,25.26A13.429,13.429,0,0,0,13.8,26.9h.006a13.449,13.449,0,0,0,9.51-22.954Zm-9.51,20.684h0a11.16,11.16,0,0,1-5.687-1.558l-.408-.242L3.478,23.936l1.129-4.123-.266-.423a11.174,11.174,0,1,1,9.466,5.236Zm6.129-8.369c-.336-.168-1.987-.981-2.3-1.093s-.532-.168-.756.168-.868,1.093-1.064,1.317-.392.252-.728.084a9.175,9.175,0,0,1-2.7-1.667,10.132,10.132,0,0,1-1.869-2.327c-.2-.336,0-.5.147-.686a9.5,9.5,0,0,0,.84-1.149.618.618,0,0,0-.028-.588c-.084-.168-.756-1.821-1.035-2.494-.273-.655-.55-.566-.756-.577s-.42-.012-.644-.012a1.234,1.234,0,0,0-.9.42,3.767,3.767,0,0,0-1.176,2.8,6.534,6.534,0,0,0,1.372,3.475A14.973,14.973,0,0,0,14.085,19,19.227,19.227,0,0,0,16,19.711a4.6,4.6,0,0,0,2.116.133,3.461,3.461,0,0,0,2.267-1.6,2.807,2.807,0,0,0,.2-1.6c-.084-.14-.308-.224-.644-.392Zm0,0" transform="translate(-0.25)" fill="#fcc419" fill-rule="evenodd"/>
</svg>
